HIERARCHY
ROOT Hips
{
  OFFSET 3.13124 94.3669 -3.18751
  CHANNELS  6 Xposition Yposition Zposition Zrotation Xrotation Yrotation
  JOINT LeftUpLeg
  {
    OFFSET 8.64259 1.95398 -2.38835
    CHANNELS 3 Zrotation Xrotation Yrotation
    JOINT LeftLeg
    {
      OFFSET 43.7702 0 0
      CHANNELS 3 Zrotation Xrotation Yrotation
      JOINT LeftFoot
      {
        OFFSET 40.6238 0 0
        CHANNELS 3 Zrotation Xrotation Yrotation
        JOINT LeftToeBase
        {
          OFFSET 12.7242 0 0
          CHANNELS 3 Zrotation Xrotation Yrotation
          End Site
          {
            OFFSET 0 0 0
          }
        }
      }
    }
  }
  JOINT RightUpLeg
  {
    OFFSET -8.2249 1.95398 -2.59336
    CHANNELS 3 Zrotation Xrotation Yrotation
    JOINT RightLeg
    {
      OFFSET 43.5653 0 0
      CHANNELS 3 Zrotation Xrotation Yrotation
      JOINT RightFoot
      {
        OFFSET 40.6238 0 0
        CHANNELS 3 Zrotation Xrotation Yrotation
        JOINT RightToeBase
        {
          OFFSET 12.7242 0 0
          CHANNELS 3 Zrotation Xrotation Yrotation
          End Site
          {
            OFFSET 0 0 0
          }
        }
      }
    }
  }
  JOINT Spine
  {
    OFFSET 0.165834 0.87714 6.61349
    CHANNELS 3 Zrotation Xrotation Yrotation
    JOINT Spine1
    {
      OFFSET 7.38962 1.71661e-005 0
      CHANNELS 3 Zrotation Xrotation Yrotation
      JOINT Spine2
      {
        OFFSET 11.9445 1.14441e-005 0
        CHANNELS 3 Zrotation Xrotation Yrotation
        JOINT Spine3
        {
          OFFSET 14.7254 4.19617e-005 0
          CHANNELS 3 Zrotation Xrotation Yrotation
          JOINT Spine4
          {
            OFFSET 10.9679 0 0
            CHANNELS 3 Zrotation Xrotation Yrotation
            JOINT RightShoulder
            {
              OFFSET 2.46616 -1.6653 3.69651
              CHANNELS 3 Zrotation Xrotation Yrotation
              JOINT RightArm
              {
                OFFSET 13.0012 0 0
                CHANNELS 3 Zrotation Xrotation Yrotation
                JOINT RightForeArm
                {
                  OFFSET 28.7848 1.52588e-005 0
                  CHANNELS 3 Zrotation Xrotation Yrotation
                  JOINT RightHand
                  {
                    OFFSET 26.5688 1.52588e-005 0
                    CHANNELS 3 Zrotation Xrotation Yrotation
                    End Site
                    {
                      OFFSET 0 0 0
                    }
                  }
                }
              }
            }
            JOINT LeftShoulder
            {
              OFFSET 2.38034 -1.29275 -3.75231
              CHANNELS 3 Zrotation Xrotation Yrotation
              JOINT LeftArm
              {
                OFFSET 16.3182 6.10352e-005 0
                CHANNELS 3 Zrotation Xrotation Yrotation
                JOINT LeftForeArm
                {
                  OFFSET 27.0901 0 0
                  CHANNELS 3 Zrotation Xrotation Yrotation
                  JOINT LeftHand
                  {
                    OFFSET 24.5451 1.52588e-005 0
                    CHANNELS 3 Zrotation Xrotation Yrotation
                    End Site
                    {
                      OFFSET 0 0 0
                    }
                  }
                }
              }
            }
            JOINT Neck
            {
              OFFSET 5.0226 -0.0266342 0
              CHANNELS 3 Zrotation Xrotation Yrotation
              JOINT Head
              {
                OFFSET 6.69363 2.86102e-005 0
                CHANNELS 3 Zrotation Xrotation Yrotation
                End Site
                {
                  OFFSET 0 0 0
                }
              }
            }
          }
        }
      }
    }
  }
}
MOTION
Frames:	13
Frame Time:	0.0333333
-107.248 94.9442 -82.264 81.2556 -59.1725 85.1804 -173.095 20.6275 107.926 -3.84493 0.83933 0.0832072 32.0986 -7.49487 -8.88584 28.7808 7.39953e-006 3.56447e-006 178.677 14.6438 86.5815 -24.5717 23.358 1.51812 61.0981 8.9931 5.51013 28.7808 1.33393e-005 2.0802e-005 0.0448237 7.92573 -90.8232 11.0268 -0.706852 1.0135 -0.64437 -0.661552 1.04362 -23.1791 -0.978763 0.754224 -3.16646 -0.978775 0.754215 101.54 -45.8822 -83.027 43.6515 -7.35418 -23.3396 6.60405 12.0081 -42.1848 21.2899 -4.21711 -27.1333 -78.7433 -44.5864 95.5931 -28.0953 -9.76798 -32.9641 2.40287 38.0535 -2.83939 13.6383 -5.07336 -39.3784 -26.9937 2.94632 -5.68842 -21.8284 -0.195855 15.2772 
-108.585 95.2155 -81.2467 81.4166 -62.6079 86.4662 -172.131 19.5984 110.91 -3.90021 -2.08195 -0.0804131 30.655 -7.98395 -9.65451 28.7808 7.39953e-006 3.56447e-006 178.937 12.6644 89.1091 -20.9187 20.5174 1.29931 60.489 8.15324 5.08021 28.7808 1.33393e-005 2.0802e-005 0.182336 7.81039 -91.4201 11.2565 -0.773077 1.26875 -0.414891 -0.716481 1.30153 -22.9486 -1.11863 0.977789 -2.93599 -1.11863 0.977785 101.258 -45.6128 -83.4959 41.1258 4.46977 -24.4693 -3.50709 -10.4165 -3.82986 1.3143 -0.842205 -45.3263 -77.1585 -46.2751 98.146 -15.4945 -17.4843 -12.9321 2.88582 12.0087 -5.22173 -10.7362 2.3969 -37.1484 -24.584 5.2602 -5.35392 -22.6837 1.77958 17.6004 
-109.759 95.2917 -80.1724 80.6225 -65.6555 86.6077 -171.284 18.9089 113.361 -3.95787 -4.75119 -0.233429 29.6164 -8.30786 -10.197 28.7808 7.39953e-006 3.56447e-006 179.485 10.5165 91.1702 -16.3728 17.76 1.1209 60.0988 6.87935 4.36461 28.7808 1.33393e-005 2.0802e-005 0.220357 7.61694 -91.8015 11.6462 -0.83562 1.42571 -0.0252777 -0.772062 1.4611 -22.5584 -1.22545 1.10871 -2.54577 -1.22545 1.10871 102.04 -45.6441 -82.209 32.8147 11.0373 -11.7303 -3.27435 0.0094906 -4.84665 3.33786 -1.44131 -45.4304 -75.3888 -45.5792 100.984 -4.83714 -23.6694 22.3178 7.23715 4.25762 -48.7094 -12.816 -1.66863 13.1157 -21.9321 7.18583 -5.32516 -21.205 3.66821 20.1438 
-110.81 95.1843 -79.1541 77.8861 -68.2165 84.6279 -170.606 18.894 115.194 -4.0239 -7.30895 -0.383638 28.5991 -8.28762 -10.3805 28.7808 7.39953e-006 3.56447e-006 -179.951 11.523 92.7445 -17.1345 15.795 0.982477 60.8916 7.0834 4.41765 28.7808 1.33393e-005 2.0802e-005 0.21541 7.32358 -91.8538 12.2339 -0.805624 1.46606 0.562378 -0.740333 1.50008 -21.9703 -1.20897 1.15621 -1.95761 -1.20898 1.1562 103.932 -44.7257 -79.0631 21.6021 16.3604 -0.942732 -2.13914 17.2831 -6.42123 15.0615 -4.39909 -35.2812 -72.4248 -41.3932 106.148 5.70842 -27.2486 34.0762 14.349 9.5442 -53.0136 -26.0562 -2.53299 7.12759 -19.8548 8.75179 -6.57973 -17.8126 5.38169 23.8397 
-111.722 95.0455 -78.1688 75.7183 -70.7049 83.2058 -169.761 18.4951 116.962 -4.09862 -9.90632 -0.541331 28.1573 -8.13614 -10.3062 28.7808 7.39953e-006 3.56447e-006 -179.525 13.1307 94.2902 -19.9923 13.511 0.818596 62.5396 7.05649 4.23546 28.7808 1.33393e-005 2.0802e-005 0.308855 7.01872 -91.7933 12.8304 -0.462753 1.26189 1.1589 -0.406779 1.28103 -21.3732 -0.820592 1.06451 -1.36053 -0.820602 1.06451 104.672 -40.487 -77.6031 10.0088 22.4707 24.2282 7.0397 13.6361 -40.042 10.3608 0.2447 -3.43663 -73.8745 -35.3439 104.222 11.5294 -26.4956 45.8243 17.7507 12.1464 -53.9244 -18.7913 -1.12101 2.83769 -20.5991 9.51224 -7.21789 -12.4652 6.96304 26.4393 
-112.487 95.0481 -77.3103 74.8581 -72.6905 83.0256 -168.939 18.0139 118.679 -4.13301 -11.0089 -0.606903 25.7886 -8.6675 -11.3991 28.7808 7.39953e-006 3.56447e-006 -178.917 12.264 95.695 -18.7358 11.7281 0.700924 62.4991 6.28411 3.80447 28.7808 1.33393e-005 2.0802e-005 0.402748 6.85019 -91.8494 13.1571 -0.18361 1.00085 1.48582 -0.139389 1.00797 -21.0468 -0.475911 0.899408 -1.03419 -0.475912 0.899411 104.227 -34.6153 -78.0983 7.84503 21.7512 24.8308 8.10035 21.4644 -31.336 -7.21817 0.397856 -13.0536 -76.1595 -31.1514 100.223 15.5889 -24.2815 55.7382 20.5381 15.1269 -53.1304 -7.00886 -0.419728 3.69449 -20.269 10.1771 -7.62969 -9.6606 8.14018 28.4428 
-113.121 95.0267 -76.5969 74.5252 -73.8213 82.8413 -168.608 17.6935 119.655 -4.20994 -13.1919 -0.74488 23.5208 -8.69593 -11.9526 28.7808 7.39953e-006 3.56447e-006 -178.603 11.6813 96.4542 -18.2029 10.9457 0.652388 62.1494 5.9228 3.63754 28.7808 1.33393e-005 2.0802e-005 0.379397 6.77132 -91.998 13.3169 -0.235911 1.02683 1.64553 -0.190483 1.03621 -20.8871 -0.533611 0.90847 -0.87446 -0.533591 0.908472 103.71 -30.5312 -78.9136 3.99727 21.4043 23.9478 5.74864 25.5578 -22.7935 -8.4598 0.943067 -19.1764 -77.3964 -28.2817 97.8473 19.2985 -23.2079 62.3202 26.7384 19.2817 -55.762 -8.52634 -0.524353 3.73187 -18.0903 10.8838 -8.9934 -9.24816 8.91579 30.4138 
-113.777 95.039 -75.939 73.5208 -74.6203 81.5017 -168.536 17.6088 120.086 -4.2584 -14.5382 -0.829696 19.7174 -8.65344 -12.8286 28.7808 7.39953e-006 3.56447e-006 -178.499 11.2541 96.6527 -17.6117 9.7029 0.573046 62.0963 5.24031 3.25583 28.7808 1.33393e-005 2.0802e-005 0.263389 6.69162 -92.0434 13.4882 -0.457345 1.19614 1.81673 -0.404258 1.2151 -20.7158 -0.79568 1.00341 -0.7031 -0.795678 1.00342 103.707 -27.8154 -78.794 -0.0658606 22.1027 24.2251 0.254326 11.2645 -20.0345 -5.36615 0.35469 -14.2174 -77.576 -26.1373 97.4814 21.2602 -23.3314 63.705 33.4489 23.2024 -58.8634 -14.5358 -0.815347 2.40631 -15.9256 11.6897 -9.83999 -9.11543 9.83201 31.5923 
-114.38 95.0383 -75.2956 72.1748 -75.7202 79.609 -168.417 17.143 120.36 -4.32281 -16.1851 -0.937361 16.5393 -8.3682 -13.2871 28.7808 7.39953e-006 3.56447e-006 -178.651 11.6053 96.6656 -18.6933 8.32935 0.484089 62.6221 4.58194 2.83628 28.7808 1.33393e-005 2.0802e-005 0.150883 6.60249 -92.0585 13.6778 -0.63162 1.29981 2.00632 -0.573806 1.32634 -20.5264 -0.993055 1.04994 -0.513733 -0.99305 1.04993 103.584 -25.416 -78.9458 -2.80049 23.1019 24.5745 -3.48679 -0.671372 -21.3781 -1.09451 -0.0150287 -9.62923 -76.7583 -27.7444 99.1456 23.0664 -24.3966 60.3246 32.4779 23.6304 -57.4056 -13.667 -0.684627 1.62312 -13.9775 12.3198 -9.07232 -9.6484 10.4655 31.4132 
-114.949 94.9574 -74.7563 70.0597 -77.2628 77.0155 -168.101 16.4141 120.798 -4.37578 -17.4171 -1.01914 14.0936 -8.34266 -13.9184 28.7808 7.39953e-006 3.56447e-006 -178.956 12.8924 96.7677 -21.571 6.39292 0.355373 63.3635 3.7921 2.32784 28.7808 1.33393e-005 2.0802e-005 0.0735425 6.51813 -91.9966 13.8522 -0.675531 1.31391 2.18073 -0.61705 1.34236 -20.3521 -1.03917 1.05018 -0.339485 -1.03917 1.05018 103.597 -24.3894 -78.8646 -3.64924 22.9274 20.0414 -3.67245 -1.65545 -16.3366 -0.355972 -0.0463247 -13.5599 -75.6753 -29.9952 101.222 22.6479 -25.6121 54.2911 30.8943 24.3838 -54.8872 -11.728 -0.415666 -0.386064 -11.2089 12.9328 -8.19714 -11.9001 10.6739 30.8244 
-115.494 94.8453 -74.3249 67.9157 -78.6217 74.684 -167.711 15.8684 121.436 -4.35008 -16.9058 -0.979821 12.2028 -8.44237 -14.6048 28.7808 7.39953e-006 3.56447e-006 -178.953 13.1045 97.0634 -22.263 5.3295 0.285277 64.4449 3.03488 1.83259 28.7808 1.33393e-005 2.0802e-005 0.050802 6.4433 -92.0248 14.0028 -0.654441 1.25137 2.33143 -0.59872 1.27895 -20.2017 -1.00027 0.99687 -0.189062 -1.00025 0.996865 103.788 -24.055 -78.4154 -3.87756 23.2021 15.7342 -3.51706 -1.24536 -13.7999 0.0674661 -0.0850929 -14.6562 -75.019 -31.5342 102.4 20.2006 -26.5652 48.1491 29.1133 24.3792 -52.8005 -11.4044 -0.185957 -3.18069 -8.27899 13.4416 -7.21885 -14.8854 10.6148 29.8203 
-116.083 94.6606 -73.9775 66.3356 -79.5748 73.121 -167.337 15.8765 122.178 -4.30136 -15.7292 -0.895501 10.0598 -8.20658 -14.9082 28.7808 7.39953e-006 3.56447e-006 -179.028 13.9642 97.5909 -24.3088 4.4835 0.223693 64.8164 2.61053 1.57098 28.7808 1.33393e-005 2.0802e-005 0.029497 6.39738 -92.0133 14.0952 -0.657397 1.14394 2.42391 -0.606405 1.17175 -20.1099 -0.970787 0.893507 -0.0972394 -0.970793 0.893504 104.125 -23.4327 -77.6071 -2.744 23.2553 11.5879 -3.46653 -1.18589 -11.9054 1.19106 -0.188997 -15.3484 -74.9026 -33.047 102.514 17.1279 -26.8223 42.0096 28.45 25.922 -50.4351 -8.74275 -0.0490911 -5.04808 -6.24127 14.0312 -6.66658 -16.815 10.8232 29.4031 
-116.6 94.529 -73.5887 66.5934 -80.5413 73.3468 -166.944 15.5542 122.82 -4.28482 -15.2502 -0.860255 8.13174 -7.66894 -14.6877 28.7808 7.39953e-006 3.56447e-006 -178.978 13.8268 98.0282 -25.1627 4.10269 0.195066 65.8637 2.20289 1.28867 28.7808 1.33393e-005 2.0802e-005 -0.0586908 6.41954 -91.9714 14.0577 -0.755783 1.12096 2.38644 -0.705724 1.15313 -20.1481 -1.05773 0.841999 -0.135397 -1.05773 0.842016 104.329 -24.4515 -77.2212 -2.06577 22.5305 4.87585 -3.3798 -2.77749 -4.6973 0.493069 -0.159915 -18.6082 -74.7554 -34.2244 102.704 13.8633 -27.0074 37.2453 26.6521 25.0738 -48.9787 -5.89557 -0.148831 -2.55231 -4.19571 14.5955 -7.94963 -18.6986 10.8586 31.1932 
